@startuml part4
skinparam classAttributeIconSize 0
skinparam linetype ortho

class GoogleMap <View>{}
class GoogleMap.OnMapClickListener <Controller>{}
class RecyclerView <View>{}
class RecyclerView.ViewHolder <Controller>{}
class Activity {}
class FirebaseAuth <Model>{}
class FirebaseFirestore <Model>{}
class FirebaseStorage <Model>{}
class Fragment {}
class "ArrayAdapter<>" {}
class DialogFragment <View,Controller>{}


package Entities #DDDDFF{
    
    class Following <Model>{}
    class Follower <Model>{}

    class Habit <Model> {
        -boolean isPrivate
        -String title
        -String reason
        -long dateToStart
        -ArrayList<Boolean> datesToDo
        -ArrayList<HabitEvent> habitEvents
        -String id
        -long index

        +Habit(String title, String reason, long dateToStart, ArrayList<Boolean> datesToDo, String id, boolean isPrivate,long index)
        +Habit()
        +String getId()
        +void setId(String id)
        +ArrayList<Boolean> getWeekly()
        +Boolean getDateSelected(int i)
        +Boolean setDateSelected(int i, Boolean b)
        +String getTitle()
        +void setTitle(String title)
        +String getReason()
        +long getDateToStart()
        +void setDateToStart(long dateToStart)
        +void setHabitEvents(ArrayList<HabitEvent> habitEvents)
        +ArrayList<HabitEvent> getHabitEvents()
        +boolean getIsPrivate()
        +void setIsPrivate(boolean isPrivate)
        +long getIndex()
        +void setIndex(long index)
    }

    class HabitEvent <Model>{
        -String comment
        -long eventDate
        -Bitmap img
        -String id
        -Habit parentHabit
        -double locationLat
        -double locationLon

        +Bitmap getImg()
        +void setImg(Bitmap img)
        +HabitEvent(String comment, long eventDate,Habit parentHabit, String id, double locationLat, double locationLon)
        +HabitEvent(String comment, long eventDate,Habit parentHabit, String id)
        +HabitEvent(String comment, long eventDate,Habit parentHabit, String id, Bitmap img)
        +HabitEvent(Habit parentHabit)
        +String getId()
        +void setId(String id)
        +String getComment()
        +void setComment(String comment)
        +long getEventDate()
        +void setEventDate(long eventDate)
        +Habit getParentHabit()
        +void setParentHabit(Habit parentHabit)
        +double getLocationLat()
        +void setLocationLat(double locationLat)
        +double getLocationLon()
        +void setLocationLon(double locationLon)
    }

    class Request <Model>{
        -String requesterEmail
        -String requestedEmail
        -long time

        +Request(String requesterEmail, String requestedEmail, long time)
        +String getRequesterEmail()
        +String getRequestedEmail()
        +long getTime()

    }

    class User <Model>{
        -String userEmail
        -DocumentReference userReference

        +User()
        +User(String userEmail)
        +String getUserEmail()
        +DocumentReference getUserReference()
        +CollectionReference getHabitReference()
        +CollectionReference getHabitEventReference(Habit habit)
        +Task<DocumentSnapshot> queryFollowing(User userToQuery)
        +void unfollow(User userToUnfollow, Activity currentActivity)
        +void request(User userToRequest, Activity currentActivity)
        +void acceptRequest(Request request, Activity currentActivity)
        +void denyRequest(Request request, Activity currentActivity)
    }
}

package Activities #DDFFDD {
    class LocationActivity <View,Controller>{
        -Marker marker
        -GoogleMap map
        -FusedLocationProviderClient fusedLocationClient
        -final LatLng defaultLocation
        -static final int DEFAULT_ZOOM
        -static final int PERMISSIONS_REQUEST_ACCESS_FINE_LOCATION
        -boolean locationPermissionGranted
        -Location lastKnownLocation
        -CameraPosition cameraPosition
        -static final String KEY_CAMERA_POSITION
        -static final String KEY_LOCATION
        -static final String TAG
        -static final String MAPS_API_KEY
        -String latitude
        -String longitude
        -TextView latTextView
        -TextView lonTextView
        -Button saveButton
        -double currLat
        -double currLong

        #void onCreate(Bundle savedInstanceState)
        #void onSaveInstanceState(Bundle outState)
        +void onRequestPermissionsResult(int requestCode, @NonNull String[] permissions, @NonNull int[] grantResults)
        +void onMapReady(GoogleMap googleMap)
        -void getLocationPermission()
        -void updateLocationUI()
        -void getDeviceLocation()
        +void onMapClick(LatLng latLng)
    }

    class LoginActivity <View,Controller>{
        -Button loginButton
        -Button signupButton
        -EditText usernameField
        -EditText passwordField
        -FirebaseAuth auth

        #void onCreate(Bundle savedInstanceState)
    }

    class MainActivity <View,Controller>{
        +FragmentManager getSupportFragmentManager()
        #void onCreate(Bundle savedInstanceState)
        +void switchFragment(Fragment frag)
        +void onBackPressed()
    }

    class SignUpActivity <View,Controller>{
        -EditText usernameField
        -EditText passwordField
        -Button confirmButton
        -FirebaseAuth auth

        #void onCreate(Bundle savedInstanceState)
    }
}

package Fragments #FFDDDD {
    class AllHabits <View,Controller>{
        +void parseDataBaseUpdate(@Nullable QuerySnapshot queryDocumentSnapshots, @Nullable FirebaseFirestoreException error)
    }

    class DailyHabits <View,Controller>{
        +void parseDataBaseUpdate(@Nullable QuerySnapshot queryDocumentSnapshots, @Nullable FirebaseFirestoreException error)
    }

    class EditEvent <View,Controller>{
        -EditText eventComments
        -CalendarView eventDate
        -ImageButton imgButton
        -Button locationButton
        -HabitEvent event
        -String dialogTitle
        -String removeTextTitle
        -long dateSelected
        -FirebaseStorage storage
        -Habit habit
        -final int LAUNCH_MAP_ACTIVITY
        -double oldLat
        -double oldLon
        -TextView latTextView
        -TextView lonTextView
        -User currentUser

        +void checkInput()
        +Dialog onCreateDialog(@Nullable Bundle savedInstanceState)
        +void onActivityResult(int requestCode, int resultCode, @Nullable Intent data)
    }

    class EditHabit <View,Controller>{
        -MainActivity main
        -Button isPrivateButton
        -EditText habitTitle
        -EditText habitReason
        -CalendarView habitDateToStart
        -ArrayList<Button> daysOfWeek
        -Habit habit
        -String dialogTitle
        -String removeTextTitle
        -long dateSelected
        -FirebaseStorage storage
        -User currentUser

        +void onAttach(@NonNull Context context)
        +EditHabit(Habit habit)
        +EditHabit()
        +Dialog onCreateDialog(@Nullable Bundle savedInstanceState)
        +void checkInput()
    }



    class NavBar <View,Controller>{
        -View profile_button
        -View all_habits_button
        -View daily_habits_button
        -navBarSwitch listener

        +void onAttach(Context context)
        +View onCreateView(LayoutInflater inflater, ViewGroup container, Bundle savedInstanceState)
    }

    interface NavBar.NavBarSwitch <Controller>{
        +void switchFragment(Fragment navTo)
    }

    class Profile <View,Controller>{
        -ListView profileListView
        -Button followingButton
        -Button followerButton
        -Button requestButton
        -FloatingActionButton makeRequestButton
        -TextView usernameLabel
        -ArrayAdapter<Request> requestAdapter
        -ArrayList<Request> requestDataList
        -ArrayAdapter<Follower> followerAdapter
        -ArrayList<Follower> followerDataList
        -ArrayAdapter<Following> followingAdapter
        -ArrayList<Following> followingDataList
        -User currentUser

        +void onCreate(Bundle savedInstanceState)
        +void onAttach(@NonNull Context context)
        +View onCreateView(LayoutInflater inflater, ViewGroup container, Bundle savedInstanceState)
    }

    class RecyclerViewFragment <View,Controller>{
        #DragMoveAdapter habitAdapter
        #ArrayList<Habit> habitDataList
        -RecyclerView habitView
        -View addHabitButton
        -User currentUser
        -View view

        +abstract void parseDataBaseUpdate(@Nullable QuerySnapshot queryDocumentSnapshots, @Nullable FirebaseFirestoreException error)
        +void onCreate(Bundle savedInstanceState)
        +View onCreateView(LayoutInflater inflater, ViewGroup container, Bundle savedInstanceState)
        +void onHabitClick(int position)
        +void initHabitOrder()
    }

    class RequestMake <View,Controller>{
        -Activity THIS
        -User currentUser

        +Dialog onCreateDialog(@Nullable Bundle savedInstanceState)
    }

    class RequestRespond <View,Controller>{
        -Activity THIS
        -Request request
        -User currentUser

        +RequestRespond(Request request)
        +Dialog onCreateDialog(@Nullable Bundle savedInstanceState)
    }

    class ViewEvent <View,Controller>{
        -HabitEvent event
        -ImageButton editButton
        -ImageView eventImageView
        -TextView dateTextView
        -TextView locationTextView
        -TextView commentTextView
        -FirebaseStorage storage
        -User currentUser

        +ViewEvent(HabitEvent event)
        +void onCreate(Bundle savedInstanceState)
        +View onCreateView(LayoutInflater inflater, ViewGroup container, Bundle savedInstanceState)
    }

    class ViewFollowing <View,Controller>{
        -MainActivity main
        -ListView habitListView
        -ArrayAdapter<Habit> habitAdapter
        -ArrayList<Habit> habitDataList
        -ArrayAdapter<Habit> dailyHabitAdapter
        -ArrayList<Habit> dailyHabitDataList
        -Button allHabitsButton
        -Button dailyHabitsButton
        -Button followButton
        -Button removeFollowerButton
        -TextView userProfileName
        -String user
        -Activity THIS
        -User currentUser
        -User viewedUser

        +ViewFollowing(String user)
        +View onCreateView(LayoutInflater inflater, ViewGroup container, Bundle savedInstanceState)
    }

    class ViewHabit <View,Controller>{
        -View view
        -MainActivity main
        -TextView habitIsPrivate
        -TextView habitTitle
        -TextView habitReason
        -TextView habitDateToStart
        -ImageButton editButton
        -view_habit THIS = this
        -View addEventButton
        -ArrayList<TextView> daysToDo = new ArrayList<>()
        -Habit habit
        -SwipeMenuListView eventSwipeListView
        -ArrayAdapter<HabitEvent> eventAdapter
        -SwipeMenuItem deleteItem
        -SwipeMenuItem editItem
        -FirebaseStorage storage
        -User currentUser

        +ViewHabit(Habit habit)
        +void onCreate(Bundle savedInstanceState)
        +void onAttach(Context context)
        +View onCreateView(LayoutInflater inflater, ViewGroup container, Bundle savedInstanceState)
    }
}

package Lists #DDFFFF {
    class DragMoveAdapter <View,Controller>{
        -ArrayList<Habit> habitList
        -DragListener dragListener

        +DragMoveAdapter(ArrayList<Habit> habitList, DragListener dragListener)
        +DragViewHolder onCreateViewHolder(@NonNull ViewGroup parent, int viewType)
        +void onBindViewHolder(@NonNull DragViewHolder holder, int position)
        +int getItemCount()
        +void OnItemMoved(int fromPosition, int toPosition)
        +void onItemSelected(DragViewHolder myViewHolder)
        +void onItemCLear(DragViewHolder myViewHolder)
        +void onDoneDragging()
        +void updateDocIndex()
    }

    interface DragMoveAdapter.DragListener <Controller>{
        +void onHabitClick(int position)
    }

    class DragMoveAdapter.DragViewHolder <Controller>{
        -TextView habitTitle
        -TextView habitReason
        -ImageView scoreImg
        -ImageView checkMark
        #DragListener dragListener

        +DragViewHolder(View view, DragListener dragListener)
        +void onClick(View view)
    }

    class EventList <View>{
        -ArrayList<HabitEvent> events
        -Context context

        +EventList(@NonNull Context context, ArrayList<HabitEvent> events)
        +View getView(int position, @Nullable View convertView, @NonNull ViewGroup parent)
    }

    class FollowerList <View>{
        -ArrayList<Follower> followers
        -Context context

        +FollowerList(Context context, ArrayList<Follower> followers)
        +View getView(int position, @Nullable View convertView, @NonNull ViewGroup parent)
    }

    class FollowingList <View>{
        -ArrayList<Following> followings
        -Context context

        +FollowingList(Context context, ArrayList<Following> followings)
        +View getView(int position, @Nullable View convertView, @NonNull ViewGroup parent)
    }

    class HabitList <View>{
        -ArrayList<Habit> habits
        -Context context
        -boolean isFollowing
        -String user

        +HabitList(Context context, ArrayList<Habit> habits, boolean isFollowing, String user)
        +View getView(int position, @Nullable View convertView, @NonNull ViewGroup parent)
    }

    class RequestList <View>{
        -ArrayList<Request> requests
        -Context context

        +RequestList(Context context, ArrayList<Request> requests)
        +View getView(int position, @Nullable View convertView, @NonNull ViewGroup parent)
    }
}

package Utils #FFDDFF {
    class DragHabits <Controller>{
        -ItemTouchHelperAdapter touchHelper

        +DragHabits(ItemTouchHelperAdapter touchHelper)
        +boolean isLongPressDragEnabled()
        +boolean isItemViewSwipeEnabled()
        +int getMovementFlags(@NonNull RecyclerView recyclerView, @NonNull RecyclerView.ViewHolder viewHolder)
        +boolean onMove(@NonNull RecyclerView recyclerView, @NonNull RecyclerView.ViewHolder viewHolder, @NonNull RecyclerView.ViewHolder target)
        +void onSelectedChanged(@Nullable RecyclerView.ViewHolder viewHolder, int actionState)
        +void clearView(@NonNull RecyclerView recyclerView, @NonNull RecyclerView.ViewHolder viewHolder)
        +void onSwiped(@NonNull RecyclerView.ViewHolder viewHolder, int direction)
    }

    interface ItemTouchHelperAdapter <Controller>{
        +void OnItemMoved(int fromPosition, int toPosition)
        +void onItemSelected(DragMoveAdapter.DragViewHolder myViewHolder)
        +void onItemCLear(DragMoveAdapter.DragViewHolder myViewHolder)
        +void onDoneDragging()
    }

    class SharedHelper <Controller>{
        +<u>void deleteImage(String id, FirebaseStorage storage)</u>
        +<u>void removeEvent(HabitEvent event, Habit habit, User user)</u>
        +<u>void removeHabit(Habit habit, User user)</u>
        +<u>String getStringDateFromLong(long l)</u>
    }

    class VisualIndicator <Controller>{
        -Habit habit
        -double score
        -long eventListSize
        -Boolean isFollowing
        -String user
        -ArrayList<Long> recordedEventDates
        -long eventDate
        -boolean getIsTodayEventDone
        -User currentUser

        +VisualIndicator(Habit habit, Boolean isFollowing, String user)
        +double getScore()
        +void setScore(long score)
        +void populateEventList()
        +boolean GetIsTodayEventDone()
    }

    class CustomTextWatcher <View,Controller>{
        -Integer minLength
        -Integer maxLength
        -EditText editText
        -Button button
        -Boolean goodText

        +CustomTextWatcher(EditText editText , Button button, Integer minLength, Integer maxLength)
        +void checkInput()
        +Boolean getGoodText()
        +void void beforeTextChanged(CharSequence charSequence, int i, int i1, int i2)
        +void onTextChanged(CharSequence charSequence, int i, int i1, int i2)
        +void afterTextChanged(Editable editable)

    }

    class DualCustomTextWatcher <View,Controller>{
        -Integer minLength1
        -Integer maxLength1
        -EditText editText1
        -Integer minLength2
        -Integer maxLength2
        -EditText editText2
        -Button button
        -Boolean goodInput

        +DualCustomTextWatcher(EditText editText1 , EditText editText2, Button button, Integer minLength1, Integer maxLength1, Integer minLength2, Integer maxLength2)
        +void checkInput()
        +void void beforeTextChanged(CharSequence charSequence, int i, int i1, int i2)
        +void onTextChanged(CharSequence charSequence, int i, int i1, int i2)
        +void afterTextChanged(Editable editable)
    }
}


ViewFollowing "1" *-- "0..*" Habit

RecyclerViewFragment "1" *-- "1" User
EditEvent "1" *-- "1" User
EditHabit "1" *-- "1" User
Profile "1" *-- "1" User
RequestMake "1" *-- "1" User
RequestRespond "1" *-- "1" User
ViewEvent "1" *-- "1" User
ViewFollowing "1" *-- "2" User
ViewHabit "1" *-- "1" User
VisualIndicator "1" *-- "1" User

RecyclerViewFragment "1" *-- "0..*" Habit

ViewHabit "0..*" o-- "1" Activity
ViewFollowing "0..*" o-- "1" Activity
RequestMake "0..*" o-- "1" Activity
RequestRespond "0..*" o-- "1" Activity
ViewEvent "1" o-- "1" HabitEvent
RequestRespond "1" o-- "1" Request
EditHabit "0..*" o-- "1" MainActivity
ViewHabit "0..*" o-- "1" MainActivity
ViewFollowing "0..*" o-- "1" MainActivity
VisualIndicator "0..*" o-- "1" Habit
EditEvent "0..*" o-- "1" Habit
EditEvent "0..*" o-- "1" HabitEvent
EditHabit "0..*" o-- "1" Habit
EditEvent "0..*" o-- "1" FirebaseStorage
EditHabit "0..*" o-- "1" FirebaseStorage
ViewHabit "0..*" o-- "1" FirebaseStorage
ViewHabit "0..*" o-- "1" Habit
ViewHabit "0..*" o-- "0..*" HabitEvent
LocationActivity "0..*" o-- "1" GoogleMap
MainActivity "0..*" o-- FragmentManager
Profile "0..*" o-- "0..*" Follower
Profile "0..*" o-- "0..*" Following
Profile "0..*" o-- "0..*" Request
Habit "0..*" o-- "0..*" HabitEvent
EventList "0..*" o-- "0..*" HabitEvent
FollowingList "0..*" o-- "0..*" Following
FollowerList "0..*" o-- "0..*" Follower
HabitList "0..*" o-- "0..*" Habit
RequestList "0..*" o-- "0..*" Request
DragMoveAdapter "0..*" o-- "0..*" Habit

HabitEvent <-- Habit
MainActivity <-- Fragment
SharedHelper <-- User
SharedHelper <-- FirebaseStorage
SharedHelper <-- HabitEvent
SharedHelper <-- Habit
User <-- User
User <-- Habit
User <-- Activity
DragHabits.ItemTouchHelperAdapter <-- DragMoveAdapter.DragViewHolder
DragHabits.ItemTouchHelperAdapter <-- RecyclerView.ViewHolder
DragHabits.ItemTouchHelperAdapter <-- RecyclerView
CustomTextWatcher <-- addEventButton
DualCustomTextWatcher <-- addHabitButton
CustomTextWatcher <-- confirmButton
CustomTextWatcher <-- loginButton

SignUpActivity "0..*" <-- "1" FirebaseAuth
LoginActivity "0..*" <-- "1" FirebaseAuth
User "0..*" <-- "1" FirebaseAuth
User "0..*" <-- "1" FirebaseFirestore
ViewEvent "0..*" <-- "1" FirebaseFirestore



DragHabits +-- DragHabits.ItemTouchHelperAdapter
NavBar +-- NavBar.NavBarSwitch
GoogleMap +-- GoogleMap.OnMapClickListener
GoogleMap +-- GoogleMap.OnMapClickListener
RecyclerView +-- RecyclerView.ViewHolder
DragMoveAdapter +-- DragMoveAdapter.DragViewHolder

Fragment <|-- ViewHabit
Fragment <|-- ViewFollowing
Fragment <|-- NavBar
Fragment <|-- ViewEvent
Fragment <|-- Profile
Fragment <|-- RecyclerViewFragment
RecyclerViewFragment <|-- AllHabits
RecyclerViewFragment <|-- DailyHabits

"ArrayAdapter<>" <|-- RequestList
"ArrayAdapter<>" <|-- EventList
"ArrayAdapter<>" <|-- FollowingList
"ArrayAdapter<>" <|-- FollowerList
"ArrayAdapter<>" <|-- HabitList
"RecyclerView.Adapter<>" <|-- DragMoveAdapter

Activity <|-- AppCompatActivity
AppCompatActivity <|-- SignUpActivity
AppCompatActivity <|-- MainActivity
AppCompatActivity <|-- LoginActivity
AppCompatActivity <|-- LocationActivity

NavBar.NavBarSwitch <|.. MainActivity
OnMapReadyCallback <|.. LocationActivity
GoogleMap.OnMapClickListener <|.. LocationActivity
DragMoveAdapter.DragListener <|.. RecyclerViewFragment
DragHabits.ItemTouchHelperAdapter <|.. DragMoveAdapter
View.OnClickListener <|.. DragViewHolder
RecyclerView.ViewHolder <|-- DragViewHolder
ItemTouchHelper.Callback <|-- DragHabits

DialogFragment <|-- RequestRespond
DialogFragment <|-- RequestMake
DialogFragment <|-- EditHabit
DialogFragment <|-- EditEvent
User <|-- Following
User <|-- Follower
@enduml